<?xml version="1.0" encoding="iso-8859-1"?>
<!-- Generator: Adobe Illustrator 19.0.0, SVG Export Plug-In . SVG Version: 6.00 Build 0)  -->
<svg xmlns="http://www.w3.org/2000/svg" xmlns:xlink="http://www.w3.org/1999/xlink" version="1.1" id="Layer_1" x="0px" y="0px" viewBox="0 0 512 512" style="enable-background:new 0 0 512 512;" xml:space="preserve" width="512px" height="512px">
<g>
	<g>
		<path d="M256,228.165c-23.3,0-42.255,19.066-42.255,42.502c0,4.329,3.509,7.837,7.837,7.837c4.328,0,7.837-3.508,7.837-7.837    c0-14.793,11.924-26.829,26.581-26.829c14.657,0,26.582,12.036,26.582,26.829c0,4.329,3.509,7.837,7.837,7.837    s7.837-3.508,7.837-7.837C298.256,247.231,279.3,228.165,256,228.165z" fill="#fe4080"/>
	</g>
</g>
<g>
	<g>
		<path d="M463.518,112.28v-0.002c-2.178-28.953-14.451-55.883-35.113-76.642C405.52,12.655,375.1,0,342.747,0    c-32.359,0-62.78,12.656-85.657,35.638L256,36.734l-1.093-1.099C232.022,12.655,201.602,0,169.253,0    c-32.362,0-62.783,12.656-85.658,35.635C60.724,58.6,48.13,89.139,48.13,121.626c0,32.484,12.595,63.022,35.462,85.986    l151.347,152.166c5.634,5.645,13.113,8.754,21.061,8.754c7.948,0,15.427-3.11,21.068-8.764l70.694-71.075    c3.052-3.069,3.039-8.031-0.029-11.083c-3.068-3.053-8.03-3.04-11.082,0.029l-70.685,71.067c-2.672,2.678-6.21,4.152-9.964,4.152    c-3.755,0-7.294-1.474-9.958-4.143L94.7,196.556c-19.924-20.009-30.898-46.619-30.898-74.93c0-28.314,10.974-54.924,30.899-74.933    c19.914-20.004,46.389-31.02,74.551-31.02c28.152,0,54.626,11.017,74.545,31.019L345.95,149.694    c-2.853,10.323-12.245,17.919-23.368,17.919c-13.379,0-24.264-10.988-24.264-24.492c0-4.329-3.509-7.837-7.837-7.837    c-4.328,0-7.837,3.508-7.837,7.837c0,22.148,17.916,40.166,39.937,40.166c15.333,0,28.667-8.737,35.354-21.522l46.942,47.277    l-45.366,45.61c-3.052,3.069-3.04,8.031,0.029,11.082c3.068,3.052,8.03,3.039,11.082-0.029l57.782-58.092    c22.87-22.977,35.465-53.516,35.465-85.988C463.871,118.49,463.75,115.373,463.518,112.28z M436.476,170.263l-67.68-68.163    c-3.05-3.071-8.011-3.088-11.083-0.04c-3.071,3.05-3.089,8.011-0.04,11.083l70.341,70.843c-3.217,4.42-6.791,8.627-10.719,12.573    l-1.365,1.372L266.984,47.917l1.217-1.224c3.978-3.996,8.221-7.627,12.684-10.89l57.081,57.489    c1.532,1.542,3.546,2.315,5.561,2.315c1.997,0,3.994-0.759,5.521-2.276c3.072-3.05,3.09-8.011,0.04-11.083l-54.527-54.918    c4.87-2.519,9.923-4.653,15.126-6.372l133.175,134.1C441.137,160.289,438.999,165.37,436.476,170.263z M447.088,137.073    L327.624,16.753c4.966-0.712,10.016-1.079,15.124-1.079c1.815,0,3.623,0.048,5.422,0.139l53.067,53.445    c1.532,1.542,3.546,2.315,5.561,2.315c1.997,0,3.994-0.759,5.522-2.276c3.071-3.05,3.089-8.011,0.039-11.082L375.167,20.76    c15.713,5.08,30.115,13.87,42.13,25.934c12.081,12.137,20.865,26.701,25.913,42.593l-9.062-9.127    c-3.05-3.071-8.011-3.088-11.083-0.04c-3.071,3.05-3.089,8.011-0.04,11.082l25.046,25.227c0.083,1.725,0.125,3.459,0.125,5.198    C448.197,126.843,447.821,132.002,447.088,137.073z" fill="#fe4080"/>
	</g>
</g>
<g>
	<g>
		<path d="M203.056,180.872c15.326-5.617,26.298-20.419,26.298-37.752c0-4.329-3.509-7.837-7.837-7.837    c-4.328,0-7.837,3.508-7.837,7.837c0,13.505-10.885,24.492-24.264,24.492s-24.264-10.988-24.264-24.492    c0-4.329-3.509-7.837-7.837-7.837c-4.328,0-7.837,3.508-7.837,7.837c0,17.349,10.993,32.161,26.342,37.767l-8.608,11.679    c-10.437,13.419-10.041,30.369,0.981,41.259c5.674,5.6,13.209,8.698,21.249,8.723h0.008c0.008,0,0.017,0,0.024,0    c8.013-0.024,15.551-3.122,21.223-8.725c10.93-10.797,11.337-27.737,0.999-41.222L203.056,180.872z M199.687,222.67    c-2.728,2.695-6.366,4.187-10.242,4.204c-3.872-0.017-7.508-1.508-10.236-4.201c-5.363-5.3-5.197-13.362,0.422-20.543    c0.046-0.06,0.092-0.119,0.137-0.18l9.678-13.129l9.683,13.139c0.032,0.044,0.066,0.089,0.099,0.132    C204.817,209.348,204.996,217.428,199.687,222.67z" fill="#fe4080"/>
	</g>
</g>
<g>
	<g>
		<path d="M337.381,391.937l-13.84-18.779c-1.957-2.658-5.102-4.246-8.414-4.246c-3.311,0-6.455,1.588-8.409,4.242l-13.821,18.751    c-10.439,13.418-10.043,30.368,0.98,41.26c5.676,5.6,13.211,8.697,21.248,8.721h0.008c0.007,0,0.016,0,0.023,0    c8.012-0.023,15.549-3.121,21.225-8.724C347.311,422.365,347.717,405.424,337.381,391.937z M325.37,422.01    c-2.73,2.695-6.368,4.187-10.243,4.202c-3.871-0.016-7.508-1.507-10.236-4.201c-5.362-5.299-5.197-13.361,0.422-20.541    c0.046-0.061,0.092-0.12,0.137-0.181l9.678-13.13l9.682,13.138c0.032,0.044,0.066,0.088,0.099,0.132    C330.496,408.689,330.677,416.767,325.37,422.01z" fill="#fe4080"/>
	</g>
</g>
<g>
	<g>
		<path d="M219.181,384.916l-13.842-18.783c-1.958-2.658-5.102-4.245-8.412-4.245c-3.309,0-6.453,1.586-8.409,4.242l-13.822,18.75    c-10.437,13.419-10.041,30.369,0.981,41.261c5.675,5.601,13.21,8.698,21.248,8.722h0.008c0.007,0,0.016,0,0.023,0    c8.012-0.023,15.549-3.121,21.225-8.724C229.111,415.343,229.517,398.402,219.181,384.916z M207.169,414.987    c-2.73,2.695-6.368,4.187-10.243,4.202c-3.871-0.016-7.507-1.507-10.235-4.201c-5.362-5.299-5.197-13.362,0.422-20.543    c0.046-0.06,0.092-0.119,0.137-0.18l9.678-13.129l9.682,13.139c0.032,0.044,0.066,0.088,0.099,0.132    C212.295,401.666,212.476,409.745,207.169,414.987z" fill="#fe4080"/>
	</g>
</g>
<g>
	<g>
		<path d="M278.282,462.053l-13.845-18.785c-1.958-2.656-5.102-4.242-8.409-4.242c-3.308,0-6.451,1.586-8.409,4.242l-13.821,18.751    c-10.439,13.42-10.041,30.37,0.981,41.26c5.675,5.601,13.21,8.698,21.248,8.722h0.008c0.007,0,0.016,0,0.023,0    c8.012-0.023,15.549-3.121,21.225-8.724C288.212,492.479,288.619,475.538,278.282,462.053z M266.269,492.124    c-2.73,2.695-6.368,4.187-10.243,4.203c-3.871-0.016-7.507-1.507-10.236-4.201c-5.362-5.299-5.197-13.362,0.422-20.543    c0.046-0.06,0.092-0.119,0.137-0.18l9.678-13.129l9.683,13.139c0.032,0.044,0.066,0.088,0.099,0.132    C271.396,478.803,271.576,486.882,266.269,492.124z" fill="#fe4080"/>
	</g>
</g>
<g>
</g>
<g>
</g>
<g>
</g>
<g>
</g>
<g>
</g>
<g>
</g>
<g>
</g>
<g>
</g>
<g>
</g>
<g>
</g>
<g>
</g>
<g>
</g>
<g>
</g>
<g>
</g>
<g>
</g>
</svg>
